<svg xmlns="http://www.w3.org/2000/svg" enable-background="new 0 0 864 1152" viewBox="0 0 864 1152"><ellipse cx="229.2" cy="879.3" fill="#8687db" rx="141" ry="52" class="color86c8db svgShape"></ellipse><path fill="#22237b" d="M293,568c-0.2-2.6-0.5-5.2-1-7.8c-12.1-68.6-24.7-76.7-24.7-76.7s-47.6,0-57.5,5.4c-9.9,5.4-35,12.6-35,12.6
		s-17.1,45-22.5,78.3c-2,1.9-3.2,4-3.6,6.2c-3.1,19.5,20.4,114.8,21.8,150.1c1.4,35.4-18.4,114.3-18.4,114.3s13.1,20,58.5,15
		c0,0,21-89.6,29.5-145.3c0.9-6.1,1.5-12.9,1.7-20c2.3,8.7,4.1,16.5,5,22.5c5.7,36.2-5.1,119.6-5.1,119.6s25.9,18.9,61.4,8.9
		c0,0,10.7-94.5,12.6-152.6C317.1,661.4,303.3,604.6,293,568z" class="color22407b svgShape"></path><path fill="#202163" d="M152.3,850.4c-4.5,3.6-7.3,11-7.1,17.4c0,0,0.2,5.2,3.3,10.4c11.3,19,85.6,36,93.9,18.1
		c2.8-6.1-2.8-14.6-3.8-16.2c-6-9-15.6-11.2-27.8-14.8C170.5,853.5,160.6,843.7,152.3,850.4z" class="color203663 svgShape"></path><ellipse cx="622.4" cy="871.3" fill="#8687db" rx="141" ry="52" class="color86c8db svgShape"></ellipse><rect width="829.9" height="3" x="20.1" y="802.8" fill="#22237b" class="color22407b svgShape"></rect><path fill="#f9d1a7" d="M474,286.6c0,0,15.1,33.5,22,45.2c6.8,11.7-5.2,24.6-5.2,24.6l-24-34.9c0,0-3.3-20-3.6-25.6
		c-0.2-5.6,8.4-0.8,8.4-0.8L474,286.6z" class="colorf9bca7 svgShape"></path><path fill="#167ffc" d="M699.8,379.8c-1.3,0.3-6.4,1.3-13.6-1.2c-27.9-9.6-54.5-53.3-54.5-53.3c-13.1-21.6-8-19.6-17.3-32.2
		c-11.6-15.8-18.3-17.1-44.6-44.9c-3.8-4-17-18.2-17-18.2l0,0c-4-6.9-5.5-15.2-4.1-23c1.4-7.8,5.7-15.1,11.9-20.1
		c2.7-2.2,5.8-4,8.9-5.7c3.4-2,6.9-3.9,10.6-5.4c4.6-1.8,9.4-2.7,14.3-3.4c12.7-1.7,26.3-1.2,37.4,5.1c11.7,6.7,19.3,19.3,22,32.5
		c0.5,2.6,1,5.5,2.9,7.5c1.1,1.2,2.6,1.9,4.1,2.5c9.5,4.4,19.5,9.7,23.6,19.3c2.2,5.1,2.3,10.9,0.5,16.1c4.2,6.7,13.2,8.3,20.1,12.1
		c3,1.6,5.7,3.8,8.1,6.2c4.8,4.8,8.7,10.6,10.6,17c1.9,6.5,1.6,13.7-1.5,19.8c-0.9,1.7-2,3.4-1.8,5.3c0.2,1.7,1.4,3.1,2.4,4.4
		c6,7.5,9.7,17.5,7.6,26.9c-0.8,3.7-2.1,6.3-3.9,9.6c-3.7,6.6-8.3,10.5-12.9,14.4C707.8,376.2,704.7,378.7,699.8,379.8z" class="color098ba9 svgShape"></path><path fill="#f9d1a7" d="M635,378.6c0,0-6.5,116.2-8.9,128.8c-2.4,12.6-0.7,50.2-0.7,50.2l15.6,0L661.6,387
		C661.6,387,652.2,367.9,635,378.6z" class="colorf9bca7 svgShape"></path><path fill="#f5c99b" d="M601 814c-.7 7.5-1.4 15-2.1 22.5-5.3.2-11.2.2-17.4-.3-2.6-.2-5.1-.5-7.5-.8V814H601zM703.4 781.3l5.1 32.8c-3.1 20.5-24.6 11.2-24.6 11.2l-5.1-32.7C678.8 792.5 695.3 801.7 703.4 781.3z" class="colorf5b19b svgShape"></path><path fill="#a5a6f4" d="M623.5,419.8c-5.1-1-86,0-86,0s-19.5,62.5-11.3,89.1c8.2,26.6,47.6,305.2,47.6,305.2s24,4.1,27.1,0
		c3.1-4.1-15.4-299-15.4-299c2.6,7.4,5.1,14.7,7.7,22.1c23.1,68.7,46.2,137.5,69.1,206.3c4.1,12.2,12.3,37,16.4,49.2
		c0,0,19.5,10.2,24.6-11.3c0,0-23.6-124.9-31.7-142.3c-8-48.1-10-85.6-10.2-111.7c-0.1-14.8,0.2-32.8-7.2-55.2
		C646.3,448.1,633.3,430.8,623.5,419.8z" class="colora5ddf4 svgShape"></path><path fill="#22237b" d="M525.2,477.6c5.5-32.4,9.9-67.1,12.3-104c0.7-10.8,1.2-21.4,1.6-31.7c0,0-4.4-27.6,1.6-31.7
		c6-4.1,30.6-8.2,30.6-8.2s25.6,13.3,29.7,0c4.9-0.5,13.3-0.7,22.5,2.8c12.9,4.9,19.8,14.3,24.3,20.5c17.1,23.6,15.8,51.9,14.9,61.9
		c-1.3,1.8-3.9,5-8.3,6.8c-10.1,4.2-19.8-2.4-20.6-2.9l-5.1-24.6c0,0-10.2,0-10.2,17.4c0,17.4,5.1,35.8,5.1,35.8
		c13.8,17.5,16.9,22,16.9,22c3.9,5.7,8.9,14,13.6,24.8c-13,7.2-38.3,18.7-71.8,19.8C557.6,487.1,537.8,482,525.2,477.6z" class="color22407b svgShape"></path><path fill="#202163" d="M598.8 836.6c4.6 10.4 11 29.3 3.3 44-.5 1.1-.8 1.9-1.7 2.8-4.7 4.4-17.3.3-54.8 4.4-15.3 1.7-27.2 3.8-30.7-2-2-3.3-.6-7.8 1-11.3 1.2-1 3.3-2.6 6.1-4.1 11.9-6.2 20.6-2 28.7-8.2 2.3-1.8 1.9-2.4 6.1-8.2 6.3-8.6 12.5-14.6 16.9-18.4C582.2 835.9 590.5 836.2 598.8 836.6zM708.5 814c0 0 10.2 7.2 13.3 28.7 3.1 21.5-18.4 46.8-18.4 46.8-2.9 1.7-8.6 4.6-16.2 4.9-2.8.1-13.8.5-17.6-4.9-4.4-6.2.5-20.1 14.3-32.5.2-5.5.3-11.3.1-17.3-.1-6.7-.5-13-1.1-18.9 3.7 5 10.1 7.1 15.8 5.3C704 824.4 707.8 819.6 708.5 814z" class="color203663 svgShape"></path><path fill="#f9d1a7" d="M472.3,283c0,0,7,15,9.1,22.6c2.1,7.6,1.3,8.9,1.3,8.9l-15.3,0.9l-1.5-6.2c0,0-3.1-17.5-5.4-20.9
		c-2.3-3.4,6.9-6.9,7.1-6.8S472.3,283,472.3,283z" class="colorf9bca7 svgShape"></path><path fill="#f9d1a7" d="M481.3,276c0,0-3.5,12.5-10.1,14.6s-7.7-5.1-7.7-5.1l8.1-12.2L481.3,276z" class="colorf9bca7 svgShape"></path><polygon fill="#53d86a" points="483.2 264.5 460.9 308 433.5 296.7 446 249.8" class="color99999a svgShape"></polygon><path fill="#f9d1a7" d="M481.4,275.7c0,0,0.1-3.1-4.9-4.7c-5.1-1.7-7-0.3-7.5,1.7c-0.5,2,1.1,3.5,4,4.4
		C475.7,278.1,481.4,279,481.4,275.7z" class="colorf9bca7 svgShape"></path><rect width="48.3" height="5.8" x="441.4" y="252.7" fill="#767676" transform="rotate(-157.729 465.535 255.604)" class="color767676 svgShape"></rect><rect width="37.4" height="5.8" x="448.7" y="248.5" fill="#767676" transform="rotate(-157.729 467.415 251.406)" class="color767676 svgShape"></rect><path fill="#f9d1a7" d="M449.9,264.9c0,0,0.9-2.2-3.6-4.7s-6.7-2-7.7-0.7c-1,1.3,0.2,2.8,2.7,4.2C443.8,265.2,449.1,267.3,449.9,264.9
		z" class="colorf9bca7 svgShape"></path><path fill="#f9d1a7" d="M447.8,268.4c0,0,0.5-2.3-4.4-4c-4.9-1.7-7-0.8-7.7,0.6c-0.8,1.5,0.7,2.8,3.4,3.7
		C441.9,269.7,447.4,270.9,447.8,268.4z" class="colorf9bca7 svgShape"></path><path fill="#f9d1a7" d="M446.6,272.5c0,0,0.1-2.3-4.8-3.2c-4.9-0.9-6.8,0.4-7.2,1.9c-0.5,1.6,1.2,2.6,3.9,3.1
		C441.2,274.7,446.7,275,446.6,272.5z" class="colorf9bca7 svgShape"></path><path fill="#f9d1a7" d="M445.2,277.4c0,0,0.1-2.1-4.3-2.8c-4.4-0.8-6,0.3-6.4,1.7c-0.4,1.4,1,2.3,3.5,2.7
		C440.4,279.4,445.3,279.6,445.2,277.4z" class="colorf9bca7 svgShape"></path><path fill="#22237b" d="M543.3,308.8c-4.6,2-11.1,5.2-18.2,10.3c-8.1,5.9-13.1,11.5-16.1,14.9c-3.3,3.7-6.9,7.6-10.9,12
		c5.3,5.1,9.1,11.1,11.3,18c3.2,6.2,4.9,12.8,5,19.8c0.6-0.6,1.2-1.1,1.7-1.6c1.6-1.5,4.6-4.7,8.1-9
		C538.9,355.2,563.7,318.6,543.3,308.8z" class="color22407b svgShape"></path><path fill="#f9d1a7" d="M465.6,306.6c0,0,0.5,17.1,4.2,34.1c1.5,6.8,2.9,13.3,4.7,19.4c0,0,0,0,0,0c2.7,9.1,6.1,17.2,11.7,23.2
		c9.2,10,17.3,7.2,21.9,5.4c0,0,0.1,0,0.2-0.1c0,0,0,0,0,0c1.3-0.6,8.8-4.8,7.6-15.7c-0.3-2.7-1.1-5.8-2.6-9.4
		c-2.6-6-7-14.1-11.8-22.5c-10.7-18.6-23.5-38.2-23.5-38.2L465.6,306.6z" class="colorf9bca7 svgShape"></path><path fill="#f5c99b" d="M570.1 272.3l-1.1 33.2c14.6 9.2 32.9 1.1 32.9 1.1l.8-24.9-18.3-5.3L570.1 272.3z" class="colorf5b19b svgShape"></path><path fill="#fe9526" d="M569.9,279.2l-0.6,17.4c13.9,4.8,27.4-1.4,33-4.6l0.3-10.3l-18.3-5.3c-3.7,0.4-7,0.7-8.2,0.9
		C575.4,277.3,572.8,278,569.9,279.2z" class="colore39376 svgShape"></path><path fill="#f5c99b" d="M620.2,235.6c0,0,3.5,47.4-31.5,54.2c-35,6.8-42.2-27.9-40.9-57.6s1.1-34.1,15.8-41.3
		C578.2,183.8,622.3,182.4,620.2,235.6z" class="colorf5b19b svgShape"></path><ellipse cx="601.4" cy="254" fill="#fadbba" rx="8.3" ry="4.5" transform="rotate(167.501 601.402 254.012)" class="colorfac8ba svgShape"></ellipse><ellipse cx="557.7" cy="252.1" fill="#fadbba" rx="7.4" ry="3.9" transform="scale(-1) rotate(12.492 2303.863 -5095.927)" class="colorfac8ba svgShape"></ellipse><ellipse cx="593.9" cy="237.6" fill="#1a1a1a" rx="2.7" ry="6.2" transform="matrix(-1 -.0071 .0071 -1 1186.064 479.364)" class="color1a1a1a svgShape"></ellipse><ellipse cx="561.4" cy="236.2" fill="#1a1a1a" rx="2.7" ry="6.2" transform="matrix(-1 -.0071 .0071 -1 1121.175 476.33)" class="color1a1a1a svgShape"></ellipse><path fill="#fe9526" d="M577.7,258.1C577.7,258.1,577.7,258.1,577.7,258.1c-4.3-0.5-5.6-2-6-3.2c-0.5-1.4,0.2-2.9,1.7-4.5
		c2.4-2.3,3.4-14.5,3.6-19.1c0-0.3,0.2-0.5,0.5-0.5c0.3,0,0.5,0.2,0.5,0.5c0,0.7-0.8,16.7-3.9,19.7c-1.3,1.2-1.8,2.5-1.5,3.4
		c0.4,1.3,2.3,2.2,5.2,2.5c0.3,0,0.5,0.3,0.4,0.6C578.2,258,578,258.1,577.7,258.1z" class="colore39376 svgShape"></path><path fill="#1a1a1a" d="M605.5 230.1c0 0-3-6-7.5-7-4.6-1-4.5 1.2-3 2.3 1.5 1.1 5.1 2.7 6.9 4.4S606.1 231.6 605.5 230.1zM551.7 226.9c0 0 4.1-5.3 8.8-5.4 4.7-.1 4.2 2 2.5 2.9s-5.5 1.6-7.6 2.9C553.2 228.6 550.8 228.3 551.7 226.9zM619.9 214.7" class="color1a1a1a svgShape"></path><path fill="#f5c99b" d="M617.6,238.1c0,0,0-0.1,0.1-0.3c0.4-1.4,2.3-7,8.1-5.5c6.7,1.6,7.5,5.8,7.3,14.2s-8.4,19.4-18.5,14l0.9-16.2
		L617.6,238.1z" class="colorf5b19b svgShape"></path><path fill="#f6fcf7" d="M572.2,265.4c0,0,10.3,5.2,20.3-2.2c0,0,0.9,5.9-6.1,10.3C579.4,277.9,572.9,268.5,572.2,265.4z" class="colorf6fbfc svgShape"></path><path fill="#167ffc" d="M548.1,219.6c0,0,22.1-6.7,29.6-26c0,0,12,15.7,23.7,23.5c11.7,7.9,13.2,22.8,13.2,22.8s15.8-17.4,15.2-25.1
		c-1.1-13.7-22-19.7-20.2-29.2c1.3-6.8,12.6-8,12.2-10.1c-0.9-4.3-48.8-10.5-67,16.6C548.1,202,547.7,213,548.1,219.6z" class="color098ba9 svgShape"></path><path fill="#a5a6f4" d="M541.3,373.6" class="colora5ddf4 svgShape"></path><path fill="#9091e7" d="M585.6,515c0,0,19.1,27.2,29,53c9.9,25.7,64.1,224.6,64.1,224.6S590.1,525.2,585.6,515z" class="color90d6e7 svgShape"></path><path fill="#1d1e6e" d="M628.6,366.5c0,0-27.7-9.4-27.2,35.2c0.5,44.5,52.6,64.8,52.6,64.8l-13.6-24.8l-16.9-22l-5.1-35.8
		L628.6,366.5z" class="color1d3e6e svgShape"></path><path fill="#f9d1a7" d="M372.9,313c0,0-13.8,20.8-18.7,31.7c-4.9,10.9-3.9,13-3.9,13l22.7,4.8l3.7-8.9c0,0,8.5-25.5,12.7-30
		s-8.8-11.8-9.1-11.8C379.9,311.7,372.9,313,372.9,313z" class="colorf9bca7 svgShape"></path><path fill="#f9d1a7" d="M367.1,300.4c0,0-0.9,17.4,6.7,23.1s12.1-3.2,12.1-3.2l-5.2-19.1L367.1,300.4z" class="colorf9bca7 svgShape"></path><polygon fill="#595bd4" points="365.7 285.9 386.2 346.3 423.8 337 416.7 274" class="color807f7f svgShape"></polygon><path fill="#f9d1a7" d="M366.9,298.6c0,0,0.5-4.6,8.4-6c8-1.4,10.6,1.2,10.9,4.3c0.3,3.1-2.5,5-6.9,5.8S366.2,303.6,366.9,298.6z" class="colorf9bca7 svgShape"></path><rect width="63.1" height="7.6" x="358.7" y="274" fill="#4d4d4e" transform="rotate(-13.799 390.348 277.804)" class="color4d4e4e svgShape"></rect><rect width="48.8" height="7.6" x="364.2" y="268.2" fill="#4d4d4e" transform="rotate(-13.799 388.726 272.018)" class="color4d4e4e svgShape"></rect><path fill="#f9d1a7" d="M404.5,292.9c0,0-0.8-3.5,6.5-6.2c7.3-2.8,10.5-1.5,11.7,0.7c1.2,2.2-1,4.2-5,5.7S405.2,296.6,404.5,292.9z" class="colorf9bca7 svgShape"></path><path fill="#f9d1a7" d="M406.8,298.5c0,0-0.2-3.6,7.4-5c7.7-1.5,10.6,0.3,11.4,2.7s-1.7,4-6,4.8C415.5,301.8,406.9,302.4,406.8,298.5z
		" class="colorf9bca7 svgShape"></path><path fill="#f9d1a7" d="M407.7,304.9c0,0,0.4-3.5,8-3.7c7.5-0.2,10,2,10.4,4.5c0.3,2.5-2.3,3.6-6.5,3.7S407.1,308.6,407.7,304.9z" class="colorf9bca7 svgShape"></path><path fill="#f9d1a7" d="M408.7,312.6c0,0,0.4-3.1,7.1-3.3c6.7-0.2,8.9,1.8,9.2,4c0.3,2.2-2.1,3.2-5.8,3.3
		C415.5,316.7,408.2,315.9,408.7,312.6z" class="colorf9bca7 svgShape"></path><path fill="#a5a6f4" d="M333.2,425.7c0,0-16.9,17.1-25.1,31.3c-0.7,1.2-1.3,2.3-1.8,3.4c-2.4,4.8-6.1,5-10.4,2.7c0,0,0,0,0,0
		c-8.7-4.8-19.7-20.1-26.9-29.2c-2.1-2.6-5.8-8.1-10.1-15.3c-18-30-46.9-90.2-14.2-100.4c0,0,42.8,21.4,63.8,60.3
		c3,5.6,5.7,10.5,8,14.9C330.5,419.5,333.2,425.7,333.2,425.7z" class="colora5ddf4 svgShape"></path><path fill="#a5a6f4" d="M377.8,349.8c0,0-4.5,25.5-13.8,50.1c-3.7,9.8-7.3,19.3-11.3,28c0,0,0,0,0,0c-6,13.1-13,24.3-22.6,32.1
		c-16,13-27.4,6.9-33.9,3.2c0,0-0.1-0.1-0.2-0.1c0,0,0,0,0,0c-1.7-1.2-12-9.1-7.9-25.3c1-4,2.9-8.5,6-13.5
		c5.2-8.4,13.6-19.6,22.6-31c20.1-25.4,43.7-52,43.7-52L377.8,349.8z" class="colora5ddf4 svgShape"></path><path fill="#a5a6f4" d="M377.8,349.8l-21.3-10.2c0,0-42.9,32.2-57.4,71.6s-6.6,48.3-2.3,52.3c4.4,4.1,56.4-60.3,57.4-61.7
		C355.2,400.4,377.8,349.8,377.8,349.8z" class="colora5ddf4 svgShape"></path><path fill="#8687db" d="M352.6,427.9c-6,13.1-13,24.3-22.6,32.1c-16,13-27.4,6.9-33.9,3.2c0,0-0.1-0.1-0.2-0.1c0,0,0,0,0,0
		c-8.7-4.8-19.7-20.1-26.9-29.2c-2.1-2.6-5.8-8.1-10.1-15.3l15.5-32.9c0,0,4.4,31.1,13.6,52.2c3.7,8.7,8.3,15.7,13.7,18.1
		c2,0.9,4.2,1.2,6.5,1.1C323.8,456.3,345.5,435.2,352.6,427.9z" class="color86c8db svgShape"></path><path fill="#1a1a1a" d="M260.7,187.3c0,0,18.7,23,2.7,47.1l-16.8-10.9L260.7,187.3z" class="color1a1a1a svgShape"></path><path fill="#a5a6f4" d="M291.7,557.3c0,0-1.3,2-3.5,2.9c-3,1.2-6.8,2-11.3,2.5c-4,0.5-8.3,1-13.3,1.5c-6.4,0.6-13.7,1.1-21.3,1.5
		c-28.6,1.5-61.2,1.5-61.2,1.5l-1.3,0l-31.6,0.8c0,0-43.9-180.5-6.5-225.2c18.3-21.8,54-32,54-32c19.9-4.6,34.6-3,54,8
		c17,9.6,29.4,22.1,33.7,38.3c0,0,4.3,23.4,1.1,76.6C281.3,486.8,293.6,553.8,291.7,557.3z" class="colora5ddf4 svgShape"></path><path fill="#8687db" d="M234.7,306.8c0,0-2,17.3-20.5,23.4c-21.9-5.6-24.9-22.6-24.9-22.6s-18,8.3-16.6,16.1
		c1.4,7.8,22.7,36.8,28.7,24.5c0.2-0.3,0.3-0.6,0.5-0.9c4-7.6,9.2-12.2,12.3-14.5c2.8,2.3,7.3,6.8,10.9,14.3
		c0.1,0.3,0.3,0.6,0.4,0.9c5.5,12.3,22.6-17.4,23.6-25.4C250.2,314.7,234.7,306.8,234.7,306.8z" class="color86c8db svgShape"></path><path fill="#8687db" d="M210,331.6l9.2-0.7c0,0,1.5-2.5,0.5-3c-1-0.5-3-1.7-4.8-1.6c-1.8,0.1-4.9-0.7-5.8,0.2
		C208.1,327.3,210,331.6,210,331.6z" class="color86c8db svgShape"></path><path fill="#f5c99b" d="M233.3,279.1l-0.4,42.7c-19.2,11-42.2-0.4-42.2-0.4l0.3-32l23.9-5.8L233.3,279.1z" class="colorf5b19b svgShape"></path><path fill="#fe9526" d="M233.2,287.9l-0.2,22.3c-18.1,5.4-35.1-3.4-42.2-7.8l0.1-13.2l23.9-5.8c4.7,0.7,8.9,1.4,10.4,1.6
		C226.3,285.3,229.6,286.3,233.2,287.9z" class="colore39376 svgShape"></path><path fill="#f5c99b" d="M171.1,229.2c0,0-7.2,60.6,37.4,71.4s55.7-33.5,55.7-71.6s0.5-43.9-17.9-53.9S171.4,160.7,171.1,229.2z" class="colorf5b19b svgShape"></path><path fill="#1a1a1a" d="M187.7,188.6c0,0-9.8,14.1-11.1,27.5s-4.4,17.7-11.5,15.4s-4.9-36.4,12.5-49.3
		C194.9,169.3,187.7,188.6,187.7,188.6z" class="color1a1a1a svgShape"></path><path fill="#0d0d26" d="M212,276.2c-2.2-1.6-3-4-3-4.2c-0.1-0.3,0.1-0.6,0.4-0.7c0.3-0.1,0.6,0.1,0.7,0.4l0,0c0,0,1.1,3.3,4.1,4.5
			c2.3,0.9,5,0.5,8.3-1.3c0.3-0.1,0.6,0,0.8,0.2c0.1,0.3,0,0.6-0.2,0.8c-3.5,1.9-6.6,2.4-9.2,1.3C213.1,277,212.5,276.6,212,276.2z" class="color0d1226 svgShape"></path><ellipse cx="194.2" cy="253.9" fill="#fadbba" rx="10.7" ry="5.8" transform="rotate(15.016 194.185 253.813)" class="colorfac8ba svgShape"></ellipse><ellipse cx="250.4" cy="253.9" fill="#fadbba" rx="9.5" ry="5" transform="rotate(-9.97 250.426 253.921)" class="colorfac8ba svgShape"></ellipse><ellipse cx="204.8" cy="233.2" fill="#1a1a1a" rx="3.5" ry="7.9" transform="rotate(2.113 204.794 233.175) scale(.99998)" class="color1a1a1a svgShape"></ellipse><ellipse cx="246.5" cy="233.2" fill="#1a1a1a" rx="3.5" ry="7.9" transform="rotate(2.113 246.54 233.208) scale(.99998)" class="color1a1a1a svgShape"></ellipse><path fill="#8687db" d="M242.3,565.7c-28.6,1.5-61.2,1.5-61.2,1.5l-1.3,0c-4.6-6.2-5.9-24.7-5.9-24.7s-1.8-15.3-4.5-24.5
		c-2.7-9.1-2.9-31.3-2.9-31.3s0.5-47.3,1.9-57.1c1.4-9.8,4.5-23,4.5-23s9.9,24.9,7.6,81.5C178.7,536.6,227.8,560,242.3,565.7z" class="color86c8db svgShape"></path><path fill="#a5a6f4" d="M141.8,343.6c-3.4,3.6-6.4,7.6-8.7,11.8c-15.6,28.5-14.7,133.1-13,147.8c1.7,14.7,24.6,94.2,27.7,97.2
		c3,3,36.7-6.9,36.7-6.9s-8.6-40.6-14.3-66.1c-5.6-25.5-3.5-81.7-0.4-103.7c3-22,13.4-37.2,6.5-60.5c0,0-0.5-3.9-4.5-7.8
		c-4.1-3.9-18.7-14.4-30.5-10.7" class="colora5ddf4 svgShape"></path><path fill="#fe9526" d="M224.4,260.4c-0.3,0-0.5-0.2-0.5-0.5c0-0.3,0.2-0.5,0.5-0.5c3.8-0.3,6.2-1.4,6.9-3c0.5-1.3-0.1-2.9-1.7-4.6
		c-3.8-4-3.9-24.6-3.9-25.5c0-0.3,0.2-0.5,0.5-0.5s0.5,0.2,0.5,0.5c0,0.2,0,21,3.6,24.8c1.9,2,2.6,4,1.9,5.7
		C231.6,258.1,229.8,259.9,224.4,260.4C224.4,260.4,224.4,260.4,224.4,260.4z" class="colore39376 svgShape"></path><path fill="#1a1a1a" d="M190.3 222.9c0 0 4.1-7.5 10.1-8.6s5.7 1.8 3.7 3.1c-2 1.4-6.7 3.2-9.1 5.3C192.6 224.8 189.5 224.9 190.3 222.9zM259.6 221.8c0 0-4.9-7-11-7.4-6-.4-5.5 2.4-3.3 3.5 2.1 1.2 7 2.4 9.6 4.2C257.5 224 260.6 223.7 259.6 221.8zM176.1 184.9c0 0 49.3 32.5 88.6 17.8 0 0 6.5-27.1-22.1-37.4S181.2 158.2 176.1 184.9z" class="color1a1a1a svgShape"></path><path fill="#f5c99b" d="M174.3,232.6c0,0,0-0.2-0.1-0.4c-0.4-1.9-2.5-9.1-10.1-7.6c-8.6,1.7-9.9,7-10.2,17.8s9.7,25.4,22.9,19
		l-0.2-20.8L174.3,232.6z" class="colorf5b19b svgShape"></path><path fill="#a5a6f4" d="M216.7,325.5c0,0-8.5,4.4-14.1,15.3c-0.2,0.3-0.3,0.6-0.4,0.9c-5.7,11.5-25.5-15.5-26.8-22.8
		c-1.3-7.3,15.5-15.1,15.5-15.1S193.8,321.1,216.7,325.5z" class="colora5ddf4 svgShape"></path><path fill="#a5a6f4" d="M211.8,325.6c0,0,7.3,4.2,12.4,15c0.1,0.3,0.3,0.6,0.4,0.9c5.1,11.5,21.1-16.3,22-23.6
		c0.9-7.4-13.6-14.8-13.6-14.8S231,320.6,211.8,325.6z" class="colora5ddf4 svgShape"></path><path fill="#8687db" d="M173.4,318.2" class="color86c8db svgShape"></path><path fill="#222362" d="M188.4,585.4l-42.1,12.7c0,0,2.2,50.4,28.4,38.7C174.7,636.9,195.7,630.5,188.4,585.4z" class="color223762 svgShape"></path><path fill="#1d1e6e" d="M242,700l13-82.5c0,0,4.8,75.3,9.3,95.1c4.5,19.9-5.3,135.5-5.3,135.5s-6.7,3.2-17-6.1l1.3-93.1L242,700z" class="color1d3e6e svgShape"></path><path fill="#202163" d="M238,841.3c-3.9,4.2-5.8,11.9-4.6,18.2c0,0,1,5.1,4.7,9.8c13.9,17.3,89.7,23.9,95.5,5c2-6.4-4.7-14-6-15.5
		c-7.2-8.1-17-9-29.6-10.8C256.5,841.9,245.4,833.6,238,841.3z" class="color203663 svgShape"></path></svg>